# xmcd
#
# Track frame offsets:
#	150
#	15492
#	31227
#	56115
#	73597
#	97436
#	117687
#	142414
#	163725
#	189280
#	209170
#	224070
#	242674
#
# Disc length: 3421 seconds
#
# Revision: 0
# Processed by: cddbd v1.5.2PL0 Copyright (c) Steve Scherf et al.
# Submitted via: EZCDAudioConverter 2.1.7.1
#
DISCID=d80d5b0d
DTITLE=Bernie Marsden - Shine
DYEAR=2014
DGENRE=Blues
TTITLE0=Linin' Track
TTITLE1=Wedding Day
TTITLE2=Walk Away 
TTITLE3=Kinda Wish She Would
TTITLE4=Ladyfriend
TTITLE5=Trouble
TTITLE6=Who Do We Think We Are? 
TTITLE7=Bad Blood
TTITLE8=Shine
TTITLE9=Dragonfly
TTITLE10=You Better Run
TTITLE11=Hoxie Rollin' Time
TTITLE12=NW8
EXTD=
EXTT0=
EXTT1=
EXTT2=
EXTT3=
EXTT4=
EXTT5=
EXTT6=
EXTT7=
EXTT8=
EXTT9=
EXTT10=
EXTT11=
EXTT12=
PLAYORDER=
